<svg width="401" height="40" viewBox="0 0 401 40" fill="none" xmlns="http://www.w3.org/2000/svg">
<path fill-rule="evenodd" clip-rule="evenodd" d="M65.0216 36.7149V21.6526C65.0216 16.4846 62.6797 13.7372 57.9869 13.7372C54.3619 13.7372 50.7817 15.8839 48.3859 19.3999V0L37.7262 0.530051V1.21028C40.9577 1.3146 40.9573 2.16309 40.9565 3.81468L40.9564 3.89587V36.7149C40.9564 38.252 40.2296 38.6937 37.1071 38.7467V39.4093H51.347V38.7467C49.1666 38.6937 48.3859 38.252 48.3859 36.7149V20.6101C49.7857 18.4104 51.4547 16.9793 53.5184 16.9793C56.3628 16.9793 57.5921 18.9051 57.5921 22.2003V36.7149C57.5921 38.252 56.7576 38.6937 54.5772 38.7467V39.4093H68.8709V38.7467C65.6317 38.6937 65.0216 38.252 65.0216 36.7149ZM7.72104 38.6407C12.6292 38.5347 14.1994 37.5982 14.1994 35.5045V2.08482H13.1496C8.90546 2.08482 5.49578 6.15738 1.52979 13.7989L0.695312 13.6929L1.02731 1.09539H35.4561L35.7342 13.6841L34.8998 13.7901C30.9876 6.31639 27.6407 2.08482 23.3427 2.08482H22.3468V35.5045C22.3468 37.5894 23.8542 38.5258 28.8252 38.6407V39.4092H7.72104V38.6407ZM82.1328 13.5782C74.9366 13.5782 68.9606 18.7462 68.9606 27.0415H68.9517C68.9517 35.0717 74.3174 39.851 82.1866 39.851C87.7139 39.851 91.1146 37.2715 93.5731 33.4198L92.963 33.031C90.8364 35.8845 88.665 37.5365 85.2553 37.5365C79.737 37.5365 76.8298 33.5788 76.8298 26.8736V25.7782H93.6359C94.0218 18.6932 89.9481 13.5782 82.1328 13.5782ZM86.0359 24.7888H76.8837C77.099 18.3575 78.6693 14.6206 81.7918 14.6206C85.3092 14.6206 86.7089 18.5253 86.0359 24.7888ZM127.616 9.07266C130.963 5.55665 131.636 2.42052 126.162 1.81979V1.10422H141.461V1.81979C136.661 2.75622 133.143 5.22979 127.446 11.0515L123.533 15.0622L135.871 32.4302L135.882 32.4461C138.942 36.7185 140.003 38.1995 143.686 38.6407V39.4092H125.095V38.6407C129.115 38.3138 129.563 37.1035 127.329 33.9144L118.114 20.6719L115.099 23.8081V35.5134C115.099 37.7661 116.436 38.4817 120.348 38.6495V39.4181H101.146V38.6495C105.776 38.4817 106.952 37.6601 106.952 35.5134V4.94709C106.952 2.86223 105.776 1.97881 101.146 1.81096V1.09539H120.465V1.75795C116.445 1.97881 115.108 2.74738 115.108 4.94709V22.2091L127.616 9.07266ZM154.786 13.5782C146.854 13.5782 141.273 18.7462 141.273 26.7676C141.273 34.8509 146.522 39.851 154.786 39.851C162.655 39.851 168.236 34.5682 168.236 26.5468C168.236 18.5253 162.718 13.5782 154.786 13.5782ZM154.508 14.6206C158.527 14.6206 160.313 18.7462 160.313 26.6616C160.313 34.577 159.03 38.8086 155.01 38.8086C150.99 38.8086 149.259 34.577 149.259 26.6616C149.259 18.7462 150.488 14.6206 154.508 14.6206ZM169.501 38.7467L169.51 38.7466V39.4005H185.814V38.7379C181.74 38.6319 180.843 38.2432 180.843 36.706V20.3275C182.18 18.1277 183.912 16.6436 185.59 16.4228C185.365 17.0853 185.195 17.9069 185.195 18.6225C185.195 20.7162 186.819 22.4742 189.439 22.4742C191.727 22.4742 193.405 20.8222 193.405 18.2426C193.405 15.663 191.673 13.6842 188.434 13.6842C185.419 13.6842 182.566 15.716 180.726 19.179V13.905L169.501 14.3997V15.0623C172.74 15.1153 173.413 16.1577 173.413 17.8097V36.7149C173.413 38.2506 172.742 38.6929 169.51 38.7466V38.7379L169.501 38.7467ZM207.627 13.5782C200.431 13.5782 194.455 18.7462 194.455 27.0415H194.446C194.446 35.0717 199.811 39.851 207.681 39.851C213.208 39.851 216.609 37.2715 219.067 33.4198L218.457 33.031C216.33 35.8845 214.159 37.5365 210.749 37.5365C205.231 37.5365 202.324 33.5788 202.324 26.8736V25.7782H219.13C219.516 18.6932 215.442 13.5782 207.627 13.5782ZM211.53 24.7888H202.378C202.593 18.3575 204.163 14.6206 207.286 14.6206C210.803 14.6206 212.203 18.5253 211.53 24.7888ZM221.903 33.2519C221.903 31.0521 223.078 28.7994 225.42 27.5361C228.068 26.1222 231.731 25.7124 234.452 25.408C235.862 25.2503 237.019 25.1209 237.65 24.8947V20.4423C237.65 16.5376 236.475 14.7796 233.522 14.7796C231.907 14.7796 230.4 15.2213 229.449 15.9899C230.4 16.9263 230.956 17.9687 230.956 19.179C230.956 21.4317 229.619 22.9159 227.107 22.9159C224.926 22.9159 223.311 21.2639 223.311 19.232C223.311 15.9369 227.053 13.7371 234.698 13.7371C241.508 13.7371 245.079 16.2637 245.079 22.3151V34.5681C245.079 37.2626 246.138 38.0841 249.153 36.8209L249.485 37.4216C247.421 38.7379 245.743 39.6213 243.509 39.6213C239.992 39.6213 238.538 38.2432 238.09 35.4427H237.865C235.802 37.6954 233.235 39.6743 229.601 39.6743C224.298 39.6743 221.894 36.3792 221.894 33.243L221.903 33.2519ZM237.65 34.2501V26.0078C231.288 26.9972 229.781 28.4284 229.781 32.3861C229.781 34.9657 231.118 36.6707 233.63 36.6707C235.191 36.6707 236.815 35.5752 237.65 34.2501ZM265.852 35.5045C265.852 37.5982 264.281 38.5347 259.373 38.6407V39.4092H280.477V38.6407C275.506 38.5258 273.999 37.5894 273.999 35.5045V2.08482H274.995C279.293 2.08482 282.64 6.31639 286.552 13.7901L287.386 13.6841L287.108 1.09539H252.688L252.356 13.6841L253.191 13.7901C257.157 6.14854 260.558 2.08482 264.802 2.08482H265.852V35.5045ZM288.984 38.7467C292.169 38.6937 293.003 38.252 293.003 36.7149V17.8097C293.003 16.1577 292.609 15.1153 289.432 15.0623V14.3997L300.433 13.905V36.7149C300.433 38.252 301.043 38.6937 304.345 38.7467V39.4093H288.992V38.7467H288.984ZM292.169 5.44184C292.169 2.80042 293.954 0.989414 296.584 0.989414C299.213 0.989414 300.935 2.69441 300.935 5.27399C300.935 7.85357 299.204 9.67342 296.584 9.67342C293.963 9.67342 292.169 8.13627 292.169 5.44184ZM324.857 36.7149C324.857 38.252 324.301 38.6937 322.013 38.7467V38.7555H322.004V39.4181H335.239V38.7555C332.888 38.7025 332.277 38.2608 332.277 36.7237V21.5024C332.277 21.2815 332.277 21.0077 332.224 20.619C333.848 18.2514 335.741 16.9881 337.195 16.9881C339.985 16.9881 341.044 18.914 341.044 22.2091V36.7149C341.044 38.252 340.541 38.6937 338.307 38.7467V39.4093H352.323V38.7467C349.084 38.6937 348.473 38.252 348.473 36.7149V21.6526C348.473 16.4846 346.132 13.7371 341.439 13.7371C337.975 13.7371 334.404 16.0429 332.116 19.4529C331.506 15.716 329.218 13.7371 325.306 13.7371C321.618 13.7371 318.441 15.8838 316.037 19.3999V13.905L304.812 14.3997V15.0623C308.051 15.1153 308.724 16.1577 308.724 17.8097V36.7237C308.724 38.2608 308.051 38.7025 304.812 38.7555V39.4181H318.827V38.7555C316.593 38.7025 316.144 38.2608 316.144 36.7237V20.619C317.598 18.4193 318.827 16.9881 320.837 16.9881C323.628 16.9881 324.857 18.914 324.857 22.2091V36.7149ZM352.072 27.0415C352.072 18.7462 358.047 13.5782 365.244 13.5782C373.059 13.5782 377.133 18.6932 376.747 25.7782H359.941V26.8736C359.941 33.5788 362.848 37.5365 368.366 37.5365C371.776 37.5365 373.947 35.8845 376.074 33.031L376.684 33.4198C374.225 37.2715 370.825 39.851 365.297 39.851C357.428 39.851 352.063 35.0717 352.063 27.0415H352.072ZM359.995 24.7888H369.147C369.82 18.5253 368.42 14.6206 364.903 14.6206C361.78 14.6206 360.21 18.3575 359.995 24.7888ZM380.542 30.3985H379.762V39.851H380.435L382.166 37.8192C383.728 38.7556 388.25 39.851 390.314 39.851C396.675 39.851 400.695 36.0612 400.695 31.114C400.695 26.5556 397.573 24.5237 391.597 23.0926C387.801 22.1032 385.397 20.9989 385.397 18.7462C385.397 16.2108 387.075 14.6206 389.587 14.6206C393.104 14.6206 395.114 16.9882 398.353 22.0413H399.134V13.5782H398.461L396.9 15.451C395.222 14.3468 392.763 13.5782 389.919 13.5782C383.728 13.5782 379.762 16.9352 379.762 21.9883C379.762 26.105 382.22 27.8631 388.079 29.515C393.831 31.167 395.339 32.3243 395.339 34.8509C395.339 37.1036 393.777 38.8086 390.87 38.8086C386.904 38.8086 384.167 36.2202 380.542 30.3985Z" fill="#17181A"/>
</svg>
